<svg xmlns="http://www.w3.org/2000/svg" viewBox="231.64 375.88 328.24 328.24" aria-hidden="true">
  <path fill="#1945e2" d="M459.64,388.78c-19.63-8.31-41.22-12.9-63.88-12.9-67.98,0-126.31,41.33-151.22,100.24-8.31,19.63-12.9,41.22-12.9,63.88,0,90.64,73.48,164.12,164.12,164.12,67.98,0,126.31-41.33,151.22-100.24,8.31-19.63,12.9-41.22,12.9-63.88,0-67.98-41.33-126.31-100.24-151.22ZM470.75,622.4h-40.21c-10.9,0-19.73-8.84-19.73-19.73v-46.69h9c6.3,0,10.24-6.82,7.08-12.27l-24.04-41.65c-3.15-5.46-11.03-5.46-14.17,0l-24.05,41.65c-3.15,5.46.79,12.27,7.09,12.27h9.01v44.89c0,11.89-9.64,21.54-21.54,21.54h-38.42c-19.65,0-31.93-21.27-22.1-38.29l74.99-129.88c9.82-17.02,34.38-17.02,44.2,0l74.99,129.88c9.82,17.02-2.46,38.29-22.11,38.29Z"/>
</svg>