<?xml version="1.0" encoding="UTF-8"?>
<svg id="Capa_1" xmlns="http://www.w3.org/2000/svg" version="1.1" viewBox="0 0 1920 1080">
  <!-- Generator: Adobe Illustrator 29.8.2, SVG Export Plug-In . SVG Version: 2.1.1 Build 3)  -->
  <defs>
    <style>
      .st0 {
        fill: #1945e2;
      }
    </style>
  </defs>
  <path class="st0" d="M459.64,388.78c-19.63-8.31-41.22-12.9-63.88-12.9-67.98,0-126.31,41.33-151.22,100.24-8.31,19.63-12.9,41.22-12.9,63.88,0,90.64,73.48,164.12,164.12,164.12,67.98,0,126.31-41.33,151.22-100.24,8.31-19.63,12.9-41.22,12.9-63.88,0-67.98-41.33-126.31-100.24-151.22ZM470.75,622.4h-40.21c-10.9,0-19.73-8.84-19.73-19.73v-46.69h9c6.3,0,10.24-6.82,7.08-12.27l-24.04-41.65c-3.15-5.46-11.03-5.46-14.17,0l-24.05,41.65c-3.15,5.46.79,12.27,7.09,12.27h9.01v44.89c0,11.89-9.64,21.54-21.54,21.54h-38.42c-19.65,0-31.93-21.27-22.1-38.29l74.99-129.88c9.82-17.02,34.38-17.02,44.2,0l74.99,129.88c9.82,17.02-2.46,38.29-22.11,38.29Z"/>
  <g>
    <path d="M713.38,600.06c-10.1,4.95-20.98,7.43-32.64,7.43-10.1,0-19.23-2.04-27.39-6.12-8.16-4.08-14.57-9.71-19.23-16.9-4.66-7.18-6.99-15.44-6.99-24.77,0-14.96,5.58-27.2,16.76-36.72,11.17-9.52,27.92-14.28,50.27-14.28h41.09c-.39-10.29-3.35-18.5-8.89-24.62-5.54-6.12-13.16-9.18-22.88-9.18-8.55,0-15.64,2.29-21.27,6.85-5.64,4.57-9.23,10.93-10.78,19.09h-40.8c1.94-11.66,6.16-22.1,12.68-31.33,6.51-9.22,15.05-16.41,25.64-21.56,10.59-5.14,22.48-7.72,35.7-7.72s25.89,2.82,36.86,8.45c10.97,5.64,19.57,13.7,25.79,24.19,6.22,10.49,9.33,22.83,9.33,37.01v94.71h-41.38v-23.02c-4.47,7.39-11.76,13.55-21.85,18.5ZM712.65,570.19c6.51-2.91,11.9-7.28,16.17-13.11,4.27-5.83,6.41-12.72,6.41-20.69v-1.17h-38.76c-9.33,0-16.27,1.85-20.84,5.54-4.57,3.69-6.85,8.55-6.85,14.57s2.09,10.49,6.26,13.99c4.18,3.5,10.05,5.25,17.63,5.25,6.8,0,13.45-1.46,19.96-4.37Z"/>
    <path d="M860.99,448.1c8.45-4.85,18.11-7.28,28.99-7.28v42.84h-10.78c-12.82,0-22.49,3.01-28.99,9.03-6.51,6.02-9.76,16.51-9.76,31.47v80.43h-40.8v-161.44h40.8v25.06c5.24-8.55,12.09-15.25,20.54-20.11Z"/>
    <path d="M1046.33,459.02c11.85,12.14,17.78,29.09,17.78,50.85v94.71h-40.8v-89.17c0-12.82-3.21-22.68-9.62-29.58-6.41-6.89-15.15-10.35-26.23-10.35s-20.16,3.45-26.66,10.35c-6.51,6.9-9.76,16.76-9.76,29.58v89.17h-40.8v-161.44h40.8v20.11c5.44-6.99,12.38-12.48,20.84-16.46,8.45-3.98,17.73-5.97,27.83-5.97,19.23,0,34.77,6.07,46.62,18.21Z"/>
    <path d="M1663.03,442.91v187.46c-.57,41.99-35.28,75.85-78,75.85s-77.53-33.93-78.02-75.99h40.77c.49,19.86,16.97,35.8,37.25,35.8s36.67-15.86,37.23-35.66h-.01v-26.02h-.01v-20.11c-5.43,6.99-12.39,12.48-20.83,16.47-8.45,3.98-17.73,5.97-27.83,5.97-19.23,0-34.77-6.07-46.63-18.21-11.84-12.14-17.77-29.1-17.77-50.86v-94.71h40.8v89.17c0,12.82,3.21,22.68,9.62,29.58,6.41,6.89,15.15,10.34,26.22,10.34s20.16-3.45,26.66-10.34c6.51-6.9,9.76-16.76,9.76-29.58v-35.13c0-.4.01-.79.01-1.19v-52.85h40.78Z"/>
    <g>
      <path d="M1108.83,423.91c7.18,0,13.16-2.28,17.92-6.85,4.76-4.56,7.14-10.24,7.14-17.05s-2.38-12.48-7.14-17.05c-4.76-4.56-10.74-6.85-17.92-6.85s-13.16,2.29-17.92,6.85c-4.76,4.57-7.14,10.25-7.14,17.05s2.38,12.49,7.14,17.05c4.76,4.57,10.73,6.85,17.92,6.85Z"/>
      <rect x="1088.14" y="443.14" width="40.8" height="161.44"/>
    </g>
    <path d="M1421.19,600.06c-10.1,4.95-20.98,7.43-32.64,7.43-10.1,0-19.23-2.04-27.39-6.12-8.16-4.08-14.57-9.71-19.23-16.9-4.66-7.18-6.99-15.44-6.99-24.77,0-14.96,5.58-27.2,16.76-36.72,11.17-9.52,27.92-14.28,50.27-14.28h41.09c-.39-10.29-3.35-18.5-8.89-24.62-5.54-6.12-13.16-9.18-22.87-9.18-8.55,0-15.64,2.29-21.27,6.85-5.64,4.57-9.23,10.93-10.78,19.09h-40.8c1.94-11.66,6.17-22.1,12.68-31.33,6.51-9.22,15.05-16.41,25.64-21.56,10.59-5.14,22.48-7.72,35.7-7.72s25.88,2.82,36.86,8.45c10.97,5.64,19.57,13.7,25.79,24.19,6.21,10.49,9.32,22.83,9.32,37.01v94.71h-41.38v-23.02c-4.47,7.39-11.76,13.55-21.85,18.5ZM1420.46,570.19c6.51-2.91,11.9-7.28,16.17-13.11,4.27-5.83,6.41-12.72,6.41-20.69v-1.17h-38.76c-9.32,0-16.27,1.85-20.83,5.54-4.57,3.69-6.85,8.55-6.85,14.57s2.09,10.49,6.26,13.99c4.18,3.5,10.05,5.25,17.63,5.25,6.8,0,13.45-1.46,19.96-4.37Z"/>
    <path d="M1235.8,443.43c-16.38,0-31.67,4.66-44.62,12.75v-13.03h-38.96v214.09h38.96v-57.71c12.95,8.08,28.24,12.75,44.62,12.75,46.63,0,84.43-37.8,84.43-84.43s-37.8-84.41-84.43-84.41ZM1235.8,577.08c-19.75,0-36.78-11.63-44.62-28.41-2.95-6.32-4.61-13.39-4.61-20.83s1.66-14.5,4.61-20.83c7.84-16.78,24.87-28.39,44.62-28.39,27.19,0,49.23,22.03,49.23,49.22s-22.05,49.23-49.23,49.23Z"/>
  </g>
</svg>