<svg xmlns="http://www.w3.org/2000/svg" viewBox="64.2921 220.1119 396.2453 181.1098" width="396.245px" height="181.11px">
  <g id="Capa_1" transform="matrix(1, 0, 0, 1, 21.474339171479293, 4.294872411932724)">
    <title>QR</title>
    <path class="cls-1" d="M 101.037 332.237 L 49.297 332.237 C 45.728 332.243 42.837 335.138 42.837 338.707 L 42.837 390.447 C 42.837 394.017 45.728 396.912 49.297 396.917 L 101.037 396.917 C 104.611 396.917 107.507 394.021 107.507 390.447 L 107.507 338.707 C 107.507 335.134 104.611 332.237 101.037 332.237 Z M 81.637 371.047 C 81.442 376.024 75.932 378.923 71.72 376.265 C 69.918 375.128 68.791 373.176 68.707 371.047 L 68.707 358.107 C 68.512 353.13 73.777 349.808 78.185 352.127 C 80.392 353.288 81.736 355.615 81.637 358.107 L 81.637 371.047 Z" style="fill: rgb(9, 135, 201); stroke-width: 1;"/>
    <path class="cls-1" d="M 68.707 312.837 L 49.297 312.837 C 44.321 313.033 41.422 318.543 44.08 322.755 C 45.217 324.557 47.168 325.683 49.297 325.767 L 68.707 325.767 C 73.684 325.571 76.583 320.062 73.925 315.85 C 72.788 314.048 70.837 312.921 68.707 312.837 Z" style="fill: rgb(9, 135, 201); stroke-width: 1;"/>
    <path class="cls-1" d="M 55.767 293.427 L 49.297 293.427 C 44.317 293.427 41.204 298.819 43.694 303.132 C 44.85 305.134 46.986 306.367 49.297 306.367 L 55.767 306.367 C 60.748 306.367 63.861 300.976 61.371 296.662 C 60.215 294.66 58.079 293.427 55.767 293.427 Z" style="fill: rgb(9, 135, 201); stroke-width: 1;"/>
    <path class="cls-1" d="M 198.057 241.687 L 172.187 241.687 L 172.187 222.287 C 172.187 218.714 169.291 215.817 165.717 215.817 L 120.447 215.817 C 115.467 215.817 112.354 221.209 114.844 225.522 C 116 227.524 118.136 228.757 120.447 228.757 L 159.247 228.757 L 159.247 248.157 C 159.247 251.731 162.144 254.627 165.717 254.627 L 198.057 254.627 C 203.038 254.627 206.151 249.236 203.661 244.922 C 202.505 242.92 200.369 241.687 198.057 241.687 Z" style="fill: rgb(9, 135, 201); stroke-width: 1;"/>
    <path class="cls-1" d="M 172.187 261.097 C 168.618 261.097 165.723 263.988 165.717 267.557 L 165.717 293.427 C 165.717 298.408 171.109 301.521 175.422 299.03 C 177.424 297.875 178.657 295.739 178.657 293.427 L 178.657 267.557 C 178.652 263.988 175.757 261.097 172.187 261.097 Z" style="fill: rgb(9, 135, 201); stroke-width: 1;"/>
    <path class="cls-1" d="M 101.037 293.427 L 75.167 293.427 C 70.187 293.427 67.074 298.819 69.564 303.132 C 70.72 305.134 72.856 306.367 75.167 306.367 L 101.037 306.367 C 106.018 306.367 109.131 300.976 106.641 296.662 C 105.485 294.66 103.349 293.427 101.037 293.427 Z" style="fill: rgb(9, 135, 201); stroke-width: 1;"/>
    <path class="cls-1" d="M 152.787 261.097 L 126.907 261.097 L 126.907 241.687 C 126.712 236.71 121.202 233.812 116.99 236.47 C 115.188 237.607 114.061 239.558 113.977 241.687 L 113.977 267.557 C 113.972 271.133 116.872 274.033 120.447 274.027 L 152.787 274.027 C 157.764 273.831 160.663 268.322 158.005 264.11 C 156.868 262.308 154.917 261.181 152.787 261.097 L 152.787 261.097 Z" style="fill: rgb(9, 135, 201); stroke-width: 1;"/>
    <path class="cls-1" d="M 139.847 235.227 C 136.278 235.227 133.383 238.118 133.377 241.687 L 133.377 248.157 C 133.377 253.138 138.769 256.251 143.082 253.76 C 145.084 252.605 146.317 250.469 146.317 248.157 L 146.317 241.687 C 146.312 238.118 143.417 235.227 139.847 235.227 Z" style="fill: rgb(9, 135, 201); stroke-width: 1;"/>
    <path class="cls-1" d="M 101.037 215.817 L 49.297 215.817 C 45.728 215.823 42.837 218.718 42.837 222.287 L 42.837 274.027 C 42.837 277.597 45.728 280.492 49.297 280.497 L 101.037 280.497 C 104.611 280.497 107.507 277.601 107.507 274.027 L 107.507 222.287 C 107.507 218.714 104.611 215.817 101.037 215.817 Z M 81.637 254.627 C 81.833 259.604 76.568 262.926 72.16 260.608 C 69.953 259.446 68.609 257.12 68.707 254.627 L 68.707 241.687 C 68.903 236.71 74.413 233.812 78.625 236.47 C 80.427 237.607 81.554 239.558 81.637 241.687 L 81.637 254.627 Z" style="fill: rgb(9, 135, 201); stroke-width: 1;"/>
    <path class="cls-1" d="M 146.317 319.307 L 139.847 319.307 C 134.871 319.111 131.548 324.377 133.867 328.785 C 135.028 330.992 137.355 332.335 139.847 332.237 L 146.317 332.237 C 151.294 332.433 154.617 327.168 152.298 322.76 C 151.137 320.553 148.81 319.209 146.317 319.307 Z" style="fill: rgb(9, 135, 201); stroke-width: 1;"/>
    <path class="cls-1" d="M 217.457 267.557 L 191.587 267.557 C 186.607 267.557 183.494 272.949 185.984 277.262 C 187.14 279.264 189.276 280.497 191.587 280.497 L 217.457 280.497 C 222.438 280.497 225.551 275.106 223.061 270.792 C 221.905 268.79 219.769 267.557 217.457 267.557 L 217.457 267.557 Z" style="fill: rgb(9, 135, 201); stroke-width: 1;"/>
    <path class="cls-1" d="M 217.457 286.967 L 191.587 286.967 C 186.611 286.771 183.288 292.037 185.607 296.445 C 186.768 298.652 189.095 299.995 191.587 299.897 L 210.987 299.897 L 210.987 319.307 C 210.987 324.288 216.379 327.401 220.692 324.91 C 222.694 323.755 223.927 321.619 223.927 319.307 L 223.927 293.427 C 223.922 289.858 221.027 286.967 217.457 286.967 Z" style="fill: rgb(9, 135, 201); stroke-width: 1;"/>
    <path class="cls-1" d="M 217.457 215.817 L 185.117 215.817 C 180.137 215.817 177.024 221.209 179.514 225.522 C 180.67 227.524 182.806 228.757 185.117 228.757 L 210.987 228.757 L 210.987 254.627 C 210.987 259.608 216.379 262.721 220.692 260.23 C 222.694 259.075 223.927 256.939 223.927 254.627 L 223.927 222.287 C 223.927 218.714 221.031 215.817 217.457 215.817 Z" style="fill: rgb(9, 135, 201); stroke-width: 1;"/>
    <path class="cls-1" d="M 217.457 332.237 L 165.717 332.237 C 162.144 332.237 159.247 335.134 159.247 338.707 L 159.247 390.447 C 159.247 394.021 162.144 396.917 165.717 396.917 L 217.457 396.917 C 221.031 396.917 223.927 394.021 223.927 390.447 L 223.927 338.707 C 223.927 335.134 221.031 332.237 217.457 332.237 Z M 198.057 371.047 C 198.057 376.028 192.666 379.141 188.352 376.65 C 186.351 375.495 185.117 373.359 185.117 371.047 L 185.117 358.107 C 185.117 353.127 190.509 350.014 194.822 352.504 C 196.824 353.66 198.057 355.796 198.057 358.107 L 198.057 371.047 Z" style="fill: rgb(9, 135, 201); stroke-width: 1;"/>
    <path class="cls-1" d="M 146.317 338.707 L 120.447 338.707 C 115.471 338.511 112.148 343.777 114.467 348.185 C 115.628 350.392 117.955 351.735 120.447 351.637 L 139.847 351.637 L 139.847 390.447 C 139.847 395.428 145.239 398.541 149.552 396.05 C 151.554 394.895 152.787 392.759 152.787 390.447 L 152.787 345.177 C 152.787 341.604 149.891 338.707 146.317 338.707 Z" style="fill: rgb(9, 135, 201); stroke-width: 1;"/>
    <path class="cls-1" d="M 198.057 306.367 L 165.717 306.367 C 160.737 306.367 157.624 311.759 160.114 316.072 C 161.27 318.074 163.406 319.307 165.717 319.307 L 198.057 319.307 C 203.038 319.307 206.151 313.916 203.661 309.602 C 202.505 307.6 200.369 306.367 198.057 306.367 Z" style="fill: rgb(9, 135, 201); stroke-width: 1;"/>
    <path class="cls-1" d="M 146.317 299.897 L 139.847 299.897 C 134.867 299.897 131.754 305.289 134.244 309.602 C 135.4 311.604 137.536 312.837 139.847 312.837 L 146.317 312.837 C 151.298 312.837 154.411 307.446 151.921 303.132 C 150.765 301.13 148.629 299.897 146.317 299.897 Z" style="fill: rgb(9, 135, 201); stroke-width: 1;"/>
    <path class="cls-1" d="M 120.447 358.107 C 116.874 358.107 113.977 361.004 113.977 364.577 L 113.977 390.447 C 113.977 395.428 119.369 398.541 123.682 396.05 C 125.684 394.895 126.917 392.759 126.917 390.447 L 126.917 364.577 C 126.917 361.004 124.021 358.107 120.447 358.107 Z" style="fill: rgb(9, 135, 201); stroke-width: 1;"/>
    <path class="cls-1" d="M 152.787 280.497 L 120.447 280.497 C 116.878 280.503 113.987 283.398 113.987 286.967 L 113.987 312.837 L 94.587 312.837 C 89.611 312.641 86.288 317.907 88.607 322.315 C 89.768 324.522 92.095 325.865 94.587 325.767 L 120.457 325.767 C 124.027 325.767 126.922 322.877 126.927 319.307 L 126.927 293.427 L 152.787 293.427 C 157.764 293.231 160.663 287.722 158.005 283.51 C 156.868 281.708 154.917 280.581 152.787 280.497 Z" style="fill: rgb(9, 135, 201); stroke-width: 1;"/>
    <path class="cls-1" d="M 285.894 344.499 C 272.148 344.499 260.948 340.036 252.294 331.109 C 243.641 322.183 239.308 310.516 239.294 296.109 C 239.294 280.989 243.691 268.719 252.484 259.299 C 261.278 249.879 272.924 245.193 287.424 245.239 C 301.124 245.239 312.191 249.726 320.624 258.699 C 329.058 267.673 333.301 279.493 333.354 294.159 C 333.354 309.199 328.958 321.359 320.164 330.639 L 319.294 331.549 C 319.022 331.843 318.731 332.121 318.424 332.379 L 342.724 355.749 L 312.464 355.749 L 299.754 342.859 C 295.225 344.001 290.566 344.553 285.894 344.499 Z M 286.824 263.839 C 279.771 263.61 273.04 266.802 268.754 272.409 C 264.294 278.076 262.064 285.596 262.064 294.969 C 262.064 304.469 264.294 311.986 268.754 317.519 C 272.942 322.926 279.458 326.01 286.294 325.819 C 293.748 325.819 299.661 323.153 304.034 317.819 C 308.408 312.486 310.594 305.013 310.594 295.399 C 310.594 285.486 308.474 277.743 304.234 272.169 C 299.994 266.596 294.191 263.826 286.824 263.859 L 286.824 263.839 Z" style="fill: rgb(9, 135, 201); stroke-width: 1;"/>
    <path class="cls-1" d="M 439.063 355.635 L 410.875 355.635 L 393.926 328.6 C 392.662 326.542 391.448 324.719 390.282 323.128 C 389.234 321.648 388.053 320.259 386.751 318.979 C 385.667 317.912 384.409 317.021 383.027 316.341 C 381.711 315.733 380.267 315.422 378.804 315.433 L 372.197 315.433 L 372.197 355.635 L 347.653 355.635 L 347.653 250.56 L 386.558 250.56 C 413.048 250.56 426.269 260.083 426.223 279.128 C 426.263 282.583 425.672 286.016 424.475 289.274 C 423.356 292.307 421.705 295.132 419.594 297.625 C 417.406 300.165 414.803 302.342 411.885 304.072 C 408.749 305.928 405.36 307.356 401.816 308.319 L 401.816 308.614 C 403.515 309.144 405.108 309.947 406.527 310.989 C 408.11 312.147 409.583 313.437 410.932 314.842 C 412.379 316.343 413.736 317.922 414.996 319.57 C 416.29 321.256 417.467 322.902 418.526 324.507 L 439.063 355.635 Z M 372.197 268.303 L 372.197 297.527 L 382.834 297.527 C 388.133 297.527 392.364 296.068 395.526 293.148 C 398.709 290.297 400.477 286.27 400.385 282.083 C 400.385 272.904 394.686 268.314 383.289 268.314 L 372.197 268.303 Z" style="fill: rgb(9, 135, 201); stroke-width: 1;"/>
  </g>
</svg>