<?xml version="1.0" encoding="UTF-8"?>
<svg id="Capa_1" xmlns="http://www.w3.org/2000/svg" version="1.1" viewBox="608.21 198.53 703.57 703.57" width="256" height="256">
  <!-- Generator: Adobe Illustrator 29.8.2, SVG Export Plug-In . SVG Version: 2.1.1 Build 3)  -->
  <defs>
    <style>
      .st0 {
        fill: #1945e2;
      }
    </style>
  </defs>
  <path class="st0" d="M1075.61,276.53c-35.53-15.03-74.6-23.34-115.61-23.34-123.02,0-228.57,74.8-273.66,181.39-15.03,35.53-23.34,74.6-23.34,115.61,0,164.03,132.97,297,297,297,123.02,0,228.57-74.8,273.66-181.39,15.03-35.53,23.34-74.6,23.34-115.61,0-123.02-74.8-228.57-181.39-273.66ZM1095.7,699.31h-72.77c-19.72,0-35.71-15.99-35.71-35.71v-84.49h16.29c11.4,0,18.52-12.34,12.82-22.21l-43.5-75.36c-5.71-9.87-19.95-9.87-25.65,0l-43.51,75.36c-5.69,9.87,1.42,22.21,12.83,22.21h16.3v81.23c0,21.52-17.45,38.97-38.97,38.97h-69.52c-35.56,0-57.78-38.49-40-69.29l135.7-235.04c17.78-30.8,62.22-30.8,79.99,0l135.71,235.04c17.77,30.8-4.45,69.29-40,69.29Z"/>
</svg>